<svg width="219" height="306" viewBox="0 0 219 306" fill="none" xmlns="http://www.w3.org/2000/svg">
<path opacity="0.5" d="M58.7075 302H0L75.091 95.75L69.2397 81.2969C67.5494 77 65.4689 72.7031 62.9984 68.4062C60.6579 63.9792 57.8623 60.0078 54.6116 56.4922C51.491 52.9766 47.9802 50.1771 44.0794 48.0938C40.3086 45.8802 36.0827 44.7734 31.4017 44.7734C29.1912 44.7734 26.7857 44.9036 24.1851 45.1641C21.5846 45.4245 18.984 45.6849 16.3835 45.9453L15.2132 5.32031C17.2937 4.79948 19.6342 4.27865 22.2347 3.75781C24.8353 3.10677 27.5009 2.58594 30.2314 2.19531C33.092 1.80469 35.8876 1.47917 38.6182 1.21875C41.4788 0.958333 44.2094 0.828125 46.81 0.828125C56.302 0.828125 64.6888 2.65104 71.9703 6.29688C79.3819 9.94271 85.7532 14.4349 91.0844 19.7734C96.5455 25.112 101.031 30.9714 104.542 37.3516C108.183 43.6016 111.109 49.3307 113.319 54.5391L180.999 227.195C182.299 231.232 183.859 235.333 185.68 239.5C187.5 243.536 189.58 247.182 191.921 250.438C194.391 253.693 197.057 256.362 199.918 258.445C202.908 260.398 206.094 261.375 209.475 261.375C210.515 261.375 211.295 261.375 211.815 261.375C212.465 261.375 213.05 261.375 213.57 261.375C214.091 261.245 214.676 261.18 215.326 261.18C215.976 261.049 216.886 260.919 218.056 260.789L216.886 303.367C214.286 304.148 211.49 304.669 208.499 304.93C205.639 305.32 202.908 305.516 200.308 305.516C190.556 305.516 181.909 303.953 174.367 300.828C166.826 297.703 160.259 293.536 154.668 288.328C149.077 282.99 144.266 276.935 140.235 270.164C136.334 263.263 133.083 256.167 130.483 248.875L99.6662 162.742L94.01 189.891L58.7075 302Z" fill="#CFD6E5"/>
</svg>
